<svg id="Layer_1" data-name="Layer 1" xmlns="http://www.w3.org/2000/svg" viewBox="0 0 920.34 920.71"><defs><style>.cls-1{fill:#fefefe;}.cls-2{fill:#4d5055;}.cls-3{fill:#51555a;}.cls-4{fill:#55595e;}.cls-5{fill:#2a2e32;}.cls-6{fill:#272a2b;}.cls-7{fill:#45484c;}.cls-8{fill:#494d52;}.cls-9{fill:#5a5e63;}.cls-10{fill:#4c4f51;}.cls-11{fill:#515456;}.cls-12{fill:#3e4042;}.cls-13{fill:#474a4e;}.cls-14{fill:#454749;}.cls-15{fill:#333637;}.cls-16{fill:#1a8676;}</style></defs><title>vinyl</title><path class="cls-1" d="M568.38,42.86a18.13,18.13,0,0,0-12.31-1l-2.6-.86a41.53,41.53,0,0,0-19.31-1.14,1.31,1.31,0,0,0-1.31-.75,276.23,276.23,0,0,0-60,0,1.31,1.31,0,0,0-1.32.75c-7.14-1.38-14.14-.32-21.13,1.12a1.31,1.31,0,0,0-1.31.75,17.06,17.06,0,0,0-11.78,1.1,1.35,1.35,0,0,0-1.31.77c-4.09-1.25-8-.47-11.81,1.13l-2.63.87a8.06,8.06,0,0,0-6.72,1l-2.63.88c-2.42-.89-4.62-.27-6.72,1l-2.61.87a8.76,8.76,0,0,0-2.71-.25c-45.77,11.09-89.1,28.09-129.85,52C209.36,136.8,160,184.65,119.77,242.28,93.42,280,75.53,321.88,62.14,365.76c-12.83,42-19.72,85-19.23,129-1.17,27.46,1.72,54.63,6.37,81.62,10,58.27,30.85,112.55,61.29,163.18,22.08,36.73,50.29,68.36,81.55,97.4A448.28,448.28,0,0,0,325,922.25c62.08,26,126.73,38.08,194.17,35.66a462.22,462.22,0,0,0,409-284.28,449.12,449.12,0,0,0,34.18-150.75c2.56-49.73-2.21-98.55-15.93-146.45.15-.15.44-.39.41-.44a9,9,0,0,0-.69-1A435.78,435.78,0,0,0,897,260.89c-15.93-26.12-33.39-51.34-55.33-73,0-2.16-1.78-3.15-3-4.46A468.4,468.4,0,0,0,684.3,75.06c-26.19-11.41-53.13-20.94-81.5-25.69l-2.57-.86a7.46,7.46,0,0,0-6.75-1l-2.6-.86a8.33,8.33,0,0,0-6.75-1l-2.6-.86c-3.83-1.62-7.74-2.39-11.84-1.14A1.34,1.34,0,0,0,568.38,42.86Z" transform="translate(-42.65 -37.5)"/><path class="cls-2" d="M841.67,187.86c21.94,21.69,39.4,46.91,55.33,73A435.78,435.78,0,0,1,946.11,375a2.75,2.75,0,0,0,.28,1.41c13.72,47.9,18.49,96.72,15.93,146.45a449.12,449.12,0,0,1-34.18,150.75,461.21,461.21,0,0,1-409,284.28C451.68,960.33,387,948.29,325,922.25a448.28,448.28,0,0,1-132.83-85.31c-31.26-29-59.47-60.67-81.55-97.4C80.13,688.91,59.33,634.63,49.28,576.36c-4.65-27-7.54-54.16-6.37-81.62H70.78c-.45,7.17,1.46,14.18,1.69,21.26A400.18,400.18,0,0,0,84,600.38c9.43,37.78,22.77,74,42.82,107.6C142,737.81,162,764.32,184.5,788.76,225.22,832.9,272.83,867.49,328,892.08a432.52,432.52,0,0,0,366.64-7.9c49.08-24.2,91.75-57.07,128.46-97.49,7.4-8.15,16-15.67,20.48-26.26,9.77-9.31,16.34-20.94,23.62-32.11,45.41-69.67,64.77-147.16,67.27-229.2.78-25.57-2.4-51.31-7-76.72a432.18,432.18,0,0,0-64.37-161.61c-16.74-25.61-36.56-48.6-57.32-70.89C817.71,188.84,829.9,192.1,841.67,187.86Z" transform="translate(-42.65 -37.5)"/><path class="cls-3" d="M841.67,187.86c-11.77,4.24-24,1-35.9,2-7.94-7.77-15.94-15.91-24.52-22.46-15.24-11.65-30.67-23.25-47-33.61C669.08,92.39,597.68,70.92,521,66.63c-33.88-1.9-67.69,1.13-100.9,7.86-104.18,21.12-190,73.26-256,156.41-61.15,77-90.42,165.9-93.23,263.83H42.91c-.49-44,6.4-86.94,19.23-129C75.53,321.88,93.42,280,119.77,242.28,160,184.65,209.36,136.8,270.3,101.09c40.75-23.88,84.08-40.88,129.85-52a8.85,8.85,0,0,1,2.72.25l2.6-.87c2.1-1.27,4.3-1.89,6.72-1l2.63-.88a8.08,8.08,0,0,1,6.73-1l2.62-.87c3.82-1.6,7.72-2.38,11.81-1.13a1,1,0,0,0,1.31-.77,17,17,0,0,1,11.77-1.1,1,1,0,0,0,1.32-.75c7-1.44,14-2.5,21.13-1.12a1,1,0,0,0,1.32-.75,276.23,276.23,0,0,1,60,0,1,1,0,0,0,1.31.75A41.66,41.66,0,0,1,553.47,41l2.6.87a18.13,18.13,0,0,1,12.31,1,1,1,0,0,0,1.31.77c4.1-1.25,8-.48,11.84,1.14l2.6.86a8.33,8.33,0,0,1,6.75,1l2.6.86a7.46,7.46,0,0,1,6.75,1l2.57.86c28.37,4.75,55.31,14.28,81.5,25.69A468.4,468.4,0,0,1,838.65,183.4C839.89,184.71,841.67,185.7,841.67,187.86Z" transform="translate(-42.65 -37.5)"/><path class="cls-4" d="M602.8,49.37l-2.57-.86Z" transform="translate(-42.65 -37.5)"/><path class="cls-4" d="M556.07,41.89l-2.6-.87Z" transform="translate(-42.65 -37.5)"/><path class="cls-4" d="M450.38,41a1,1,0,0,1-1.32.75A1.33,1.33,0,0,1,450.38,41Z" transform="translate(-42.65 -37.5)"/><path class="cls-4" d="M437.29,42.86a1,1,0,0,1-1.31.77A1.35,1.35,0,0,1,437.29,42.86Z" transform="translate(-42.65 -37.5)"/><path class="cls-3" d="M946.39,376.43a2.75,2.75,0,0,1-.28-1.41,9,9,0,0,1,.69,1C946.83,376,946.54,376.28,946.39,376.43Z" transform="translate(-42.65 -37.5)"/><path class="cls-4" d="M534.16,39.89a1,1,0,0,1-1.31-.75A1.31,1.31,0,0,1,534.16,39.89Z" transform="translate(-42.65 -37.5)"/><path class="cls-4" d="M569.69,43.63a1,1,0,0,1-1.31-.77A1.34,1.34,0,0,1,569.69,43.63Z" transform="translate(-42.65 -37.5)"/><path class="cls-4" d="M405.47,48.5l-2.6.87Z" transform="translate(-42.65 -37.5)"/><path class="cls-4" d="M593.48,47.5l-2.6-.86Z" transform="translate(-42.65 -37.5)"/><path class="cls-4" d="M424.17,44.76l-2.62.87Z" transform="translate(-42.65 -37.5)"/><path class="cls-4" d="M584.13,45.63l-2.6-.86Z" transform="translate(-42.65 -37.5)"/><path class="cls-4" d="M414.82,46.62l-2.63.88Z" transform="translate(-42.65 -37.5)"/><path class="cls-4" d="M472.83,39.14a1,1,0,0,1-1.32.75A1.31,1.31,0,0,1,472.83,39.14Z" transform="translate(-42.65 -37.5)"/><path class="cls-5" d="M70.78,494.73C73.59,396.8,102.86,307.89,164,230.9,230.06,147.75,315.88,95.61,420.06,74.49c33.21-6.73,67-9.76,100.9-7.86,76.72,4.29,148.12,25.76,213.32,67.2,16.3,10.36,31.73,22,47,33.61,8.58,6.55,16.58,14.69,24.52,22.46,20.76,22.29,40.58,45.28,57.32,70.89A432.18,432.18,0,0,1,927.46,422.4c4.57,25.41,7.75,51.15,7,76.72-2.5,82-21.86,159.53-67.27,229.2-7.28,11.17-13.85,22.8-23.63,32.11-6.14.92-9.76-4.88-15.24-5.72,0-.6,0-1.21,0-1.81,9.75-10,17-21.9,24.29-33.71a229.36,229.36,0,0,0,28.18-52.32,62.25,62.25,0,0,0,4.24-7.13,401,401,0,0,0,32.75-138.38c1.69-31.87,1.13-63.9-5.36-95.45-4.73-23-8.95-46.12-18.62-67.76a222.35,222.35,0,0,0-20.64-48.57c-6.36-13.11-12.5-26.35-22.14-37.52a185.47,185.47,0,0,0-31.85-43.21c-16.09-19.49-32.7-38.43-54.3-52.17-13.81-12.81-28.45-24.5-45.06-33.55a195.25,195.25,0,0,0-42.86-22.57c-16.4-9.66-34.42-15.17-52.51-20.48C592.1,88.6,558.51,83.41,524.51,81.63A374,374,0,0,0,426.39,89c-15.35,3.29-31,5.81-45.28,12.86-17.26,3.42-33.58,9.31-48.6,18.6-13.79,3.62-25.42,11.52-37.28,18.93-12.72,6.87-25.14,14.19-35.81,24.1a13.08,13.08,0,0,0-3.4,1.32c-20.1,15.57-39.45,32.05-56.38,51-7.94,8.9-16.67,17.37-22.37,28.13-9.3,9.32-16.46,20.15-22.4,31.83a143.48,143.48,0,0,0-20.46,35.68c-8.8,15.39-15.33,31.73-20.57,48.63a26.77,26.77,0,0,0-2.16,4C97.2,405.37,91.47,448.27,89.62,491.75,88.35,521.66,93.44,551,99,580.28c2.43,12.79,7.92,24.81,9.2,37.86-1,2.93-4.36,6.5,2,7.48,2.11,1.37,1.68,3.58,1.85,5.6-1.5,1.07-1.26,2.37-1,4.06,2.91,21.61,11.4,41.25,21.89,60,4.64,8.28,2.85,11.78-6.1,12.7-20-33.57-33.39-69.82-42.82-107.6A400.18,400.18,0,0,1,72.47,516C72.24,508.91,70.33,501.9,70.78,494.73Z" transform="translate(-42.65 -37.5)"/><path class="cls-6" d="M828.29,754.71c5.48.84,9.1,6.64,15.24,5.72-4.43,10.59-13.07,18.11-20.47,26.26C786.35,827.11,743.68,860,694.6,884.18A430.13,430.13,0,0,1,328,892.08C272.83,867.49,225.22,832.9,184.5,788.76,162,764.32,142,737.81,126.81,708c8.95-.92,10.74-4.42,6.1-12.7-10.49-18.75-19-38.39-21.89-60-.22-1.69-.46-3,1-4.06,2.25,1.88,2.62,4.75,3.85,7.18,5,9.81,6.08,21.25,12.79,30.31,7,18.14,16.69,34.81,28.11,50.5,7.08,12,14.69,23.59,24.25,33.8a328.57,328.57,0,0,0,67.41,69l20.53,15c4.38,2.73,8.6,5.77,13.17,8.11,10.09,5.18,18.78,12.9,29.84,16.26a198.61,198.61,0,0,0,50.51,22.45c1.26.87,2.4,2.06,3.79,2.55,34.87,12.23,70.66,21,107.51,23.2,44.35,2.64,88.6.08,131.79-11.43,12.11-3.23,24.85-5.32,35.65-12.54,19.5-4.07,37.3-12.23,54.21-22.53,20.73-10.23,40.41-22.1,58-37.19a265.68,265.68,0,0,0,36.26-29.84A506.34,506.34,0,0,0,828.29,754.71Z" transform="translate(-42.65 -37.5)"/><path class="cls-7" d="M893.78,358.15c9.67,21.64,13.89,44.77,18.62,67.76,6.49,31.55,7.05,63.58,5.36,95.45A401,401,0,0,1,885,659.74a62.25,62.25,0,0,1-4.24,7.13c-6.83-14.14-17.63-21.78-33.79-20.62,0-.63,0-1.27,0-1.9a372.74,372.74,0,0,0,28.38-112.94c3.25-36.19.41-71.69-6-107.15-3-16.77-8.74-32.82-13.06-49.23C871,374.31,882.32,366,893.78,358.15Z" transform="translate(-42.65 -37.5)"/><path class="cls-7" d="M128.7,668.71c-6.71-9.06-7.81-20.5-12.79-30.31-1.23-2.43-1.6-5.3-3.85-7.18-.17-2,.26-4.23-1.85-5.6-.43-2.56.69-5.53-2-7.48-1.28-13-6.77-25.07-9.2-37.86-5.58-29.26-10.67-58.62-9.4-88.53,1.85-43.48,7.58-86.38,22.06-127.71a26.77,26.77,0,0,1,2.16-4c3.34-.47,5.63,1.66,8.34,3.06,9.71,5,19.07,11.38,30.88,10-18.39,50.54-25.64,102.4-20.84,156.21a420.44,420.44,0,0,0,19.12,92.53c2.86,8.83,8.81,16.55,9.25,26.21-12,.44-22.82,3-27.66,15.93A7.58,7.58,0,0,1,128.7,668.71Z" transform="translate(-42.65 -37.5)"/><path class="cls-8" d="M381.11,101.84c14.31-7,29.93-9.57,45.28-12.86a374,374,0,0,1,98.12-7.35c34,1.78,67.59,7,99.91,18.45,1.12,9.39-1.65,18.83-9.19,23-5.82,3.21-14.68,11.7-22.46.15-1.49-2.2-6.44-.9-9.24,1.85-1.45,1.42-3.49,4-5.32,1.47-2.81-3.92-7.25-4.57-10.79-6.91-6.71-4.42-17.71.18-19.68,8.5-28.69-2.31-57.38-3.16-86.06,0-5.47-11.5-16-13.11-28.52-3.83-3.31,2.45-5.37,4.31-9.47,1.09-4.5-3.53-9.64-4.89-13.17,2a3.39,3.39,0,0,1-4.68,1.69c-10.13-3.83-19.92-7.78-21.59-20.63C384,106.17,383.56,103.33,381.11,101.84Z" transform="translate(-42.65 -37.5)"/><path class="cls-4" d="M819.15,228.85A185.47,185.47,0,0,1,851,272.06c-12.33,9-26.06,13.65-41.4,13.19a353.19,353.19,0,0,0-68.44-74.48c-10.19-8.32-20-17.57-32.56-22.77l-7.5-5.64c2.51-14.85,7.06-28.73,18.69-39.23,16.61,9.05,31.25,20.74,45.06,33.55-6.44,5.28-10.6,13.19-8.79,20.27,3.46,13.55,7.68,27.26,19.67,36.93C788.61,244.27,810.82,242.17,819.15,228.85Z" transform="translate(-42.65 -37.5)"/><path class="cls-9" d="M177.27,243.93c5.7-10.75,14.43-19.22,22.37-28.12,16.93-19,36.28-35.45,56.38-51a13.08,13.08,0,0,1,3.4-1.32C270.87,174.19,274,188.13,274.68,203a20.23,20.23,0,0,1-2.84,3.59,501.18,501.18,0,0,0-38.91,35.23c-5,5-7.8,11.94-14.36,15.41-3.7,0-7.44.35-11.09-.08C196.12,255.8,185,253.61,177.27,243.93Z" transform="translate(-42.65 -37.5)"/><path class="cls-3" d="M828.29,754.71a506.34,506.34,0,0,1-38.54,41.41A265.68,265.68,0,0,1,753.49,826c.09-3.16-2.33-4.85-4-7.07-10.74-14.67-10.09-33.31,1.92-42.15a109.59,109.59,0,0,0,13.1-11.67c8.85-9,17.55-18.13,26.31-27.2,3.06,0,6.24-.52,9.17.11,10.79,2.28,22.77,2.54,28.27,14.92C828.29,753.5,828.28,754.11,828.29,754.71Z" transform="translate(-42.65 -37.5)"/><path class="cls-2" d="M547.74,128.11c2-8.32,13-12.92,19.68-8.5,3.54,2.34,8,3,10.79,6.91,1.83,2.56,3.87,0,5.32-1.47,2.8-2.75,7.75-4,9.24-1.85,7.78,11.55,16.64,3.06,22.46-.15,7.54-4.14,10.31-13.58,9.19-23,18.09,5.31,36.11,10.82,52.51,20.48-11.08,10.81-18.29,23.11-15.12,39.39l-7.47-1.87C620.48,142.14,584.65,133.19,547.74,128.11Z" transform="translate(-42.65 -37.5)"/><path class="cls-2" d="M381.11,101.84c2.45,1.49,2.85,4.33,3.14,6.53,1.67,12.85,11.46,16.8,21.59,20.63a3.39,3.39,0,0,0,4.68-1.69c3.53-6.84,8.67-5.48,13.17-2,4.1,3.22,6.16,1.36,9.47-1.09,12.49-9.28,23-7.67,28.52,3.83-11-.23-21.41,3.12-32.06,4.94-25.84,4.42-50.18,13.83-74.51,23.21l-7.53,3.66c2.6-16.07-5.52-28-15.07-39.47C347.53,111.15,363.85,105.26,381.11,101.84Z" transform="translate(-42.65 -37.5)"/><path class="cls-10" d="M847,646.25c16.16-1.16,27,6.48,33.79,20.62a229.36,229.36,0,0,1-28.18,52.32c-8.79-10.84-18.07-20.89-33.67-20.59C829.17,681.63,838.26,664,847,646.25Z" transform="translate(-42.65 -37.5)"/><path class="cls-2" d="M893.78,358.15C882.32,366,871,374.31,856.33,375q-6.54-15-13.1-29.92c-.52-6.05-6.16-10.38-5.62-16.79,12.21-5.54,24.84-10.31,35.53-18.74A222.35,222.35,0,0,1,893.78,358.15Z" transform="translate(-42.65 -37.5)"/><path class="cls-9" d="M819.15,228.85c-8.33,13.32-30.54,15.42-43.42,5-12-9.67-16.21-23.38-19.67-36.93-1.81-7.08,2.35-15,8.79-20.27C786.45,190.42,803.06,209.36,819.15,228.85Z" transform="translate(-42.65 -37.5)"/><path class="cls-2" d="M153.06,373.13c-11.81,1.39-21.17-5-30.88-10-2.71-1.4-5-3.53-8.34-3.06,5.24-16.9,11.77-33.24,20.57-48.63l35.53,16.87c.75,4.93-3.54,8.41-3.75,13.05C161.18,351.7,155.45,361.73,153.06,373.13Z" transform="translate(-42.65 -37.5)"/><path class="cls-3" d="M661.81,160c-3.17-16.28,4-28.58,15.12-39.39a195.25,195.25,0,0,1,42.86,22.57c-11.63,10.5-16.18,24.38-18.69,39.23Z" transform="translate(-42.65 -37.5)"/><path class="cls-3" d="M332.51,120.44c9.55,11.43,17.67,23.4,15.07,39.47-14,7-28.13,13.68-41.13,22.46.88-15.54-7-28.78-11.22-43C307.09,132,318.72,124.06,332.51,120.44Z" transform="translate(-42.65 -37.5)"/><path class="cls-3" d="M873.14,309.58c-10.69,8.43-23.32,13.2-35.53,18.74-2.91-1.16-3.57-4.09-5.08-6.37-6.45-9.72-10.45-21-19.21-29.22.27-3.25-2.72-4.87-3.72-7.48,15.34.46,29.07-4.16,41.4-13.19C860.64,283.23,866.78,296.47,873.14,309.58Z" transform="translate(-42.65 -37.5)"/><path class="cls-11" d="M818.92,698.6c15.6-.3,24.88,9.75,33.67,20.59C845.3,731,838.05,742.86,828.3,752.9,822.8,740.52,810.82,740.26,800,738c-2.93-.63-6.11-.11-9.17-.11,3-3.91,6.34-7.57,8.8-11.77,5-8.62,13.8-15,15.53-25.59C816.72,700.44,818.12,700.11,818.92,698.6Z" transform="translate(-42.65 -37.5)"/><path class="cls-3" d="M169.94,328.32l-35.53-16.87a143.48,143.48,0,0,1,20.46-35.68,16.05,16.05,0,0,0,11.65,8.17c8.75,1.74,17.28,4.59,25.91,7C186.06,304.06,179,316.82,169.94,328.32Z" transform="translate(-42.65 -37.5)"/><path class="cls-4" d="M295.23,139.37c4.18,14.22,12.1,27.46,11.22,43l-5.6,3.77c-9.8,3.94-16.3,13-26.17,16.85-.71-14.86-3.81-28.8-15.26-39.52C270.09,153.56,282.51,146.24,295.23,139.37Z" transform="translate(-42.65 -37.5)"/><path class="cls-4" d="M192.43,290.91c-8.63-2.38-17.16-5.23-25.91-7a16.05,16.05,0,0,1-11.65-8.17c5.94-11.68,13.1-22.51,22.4-31.83,7.76,9.67,18.85,11.86,30.21,13.2,3.65.43,7.39.07,11.09.08-7.38,11.74-17.75,21.33-24.34,33.65Z" transform="translate(-42.65 -37.5)"/><path class="cls-6" d="M108.22,618.14c2.68,2,1.56,4.92,2,7.48C103.86,624.64,107.23,621.07,108.22,618.14Z" transform="translate(-42.65 -37.5)"/><path class="cls-12" d="M641.26,885.68c-10.8,7.22-23.54,9.31-35.65,12.54-43.19,11.51-87.44,14.07-131.79,11.43-36.85-2.19-72.64-11-107.51-23.2-1.39-.49-2.53-1.68-3.79-2.55,5.68-6.72,9.21-14.65,13-22.5,3.65-7.67,1.07-11.67-6.51-14.73-10.6-4.28-20.82-9.5-31.11-14.52-2.27-1.11-6.08-2.22-4-5.95s4.83-.79,7.29,0c9,3.07,16.79,9.71,27.05,8.9.18,2.09,1.25,3.2,3.33,3.88,9.09,3,18,6.75,27.21,9.09,9.68,2.44,19.06,5.22,29.74,4.78,7.59-.31,16.2,4,24.44,2.64,19.34-3.13,38.68-2.27,58.08-1.79,7,.17,13.93-.73,21-.67,16.06.14,32.37,7,48.35-.43a6.75,6.75,0,0,1,2.71-.37c23.69-.19,44.64-9.81,65.71-19,8.21-1.35,14.5-7.34,22.44-9.34,1.47,7.21-3.75,10.09-8.75,12.48-8.66,4.15-17.35,8.57-26.5,11.27-9.84,2.9-9.15,9.22-6.39,15.83C632.73,871.19,637.29,878.31,641.26,885.68Z" transform="translate(-42.65 -37.5)"/><path class="cls-10" d="M815.19,700.51c-1.73,10.61-10.49,17-15.53,25.59-2.46,4.2-5.84,7.86-8.8,11.77-8.76,9.07-17.46,18.21-26.31,27.2a109.59,109.59,0,0,1-13.1,11.67c-12,8.84-12.66,27.48-1.92,42.15,1.63,2.22,4.05,3.91,4,7.07-17.61,15.09-37.29,27-58,37.19-6.63-7.39-11.52-15.89-16.44-24.46-3.24-5.62-2.63-8.71,3-11.91,8.56-4.86,16.81-10.29,25.07-15.67,2.06-1.34,4.25-3.59,2.63-6.18-1.81-2.9-4.51-1-6.51.25-6.07,3.65-11.88,7.77-19,9.38-6.19-.26-5.57-5.79-7.19-9.47-5.28-12-3.94-24.72-4-37.29a427.27,427.27,0,0,0,37.45-28.6c28.94-24.94,52.93-53.71,71-87.37q2.81-3.74,5.6-7.49c4.9-.39,8.8-4.83,14.06-3.67,11.51,2.54,23.8,1.53,34.59,7.43.4,3.94-1.59,7.13-3.36,10.35-6,10.93-12.06,21.86-18.21,32.72C812.21,694.65,811,697.81,815.19,700.51Zm-20.61-3.76c-6.65-.6-13,1.32-19.14,3.1-22.48,6.48-38.52,22-51.62,40.16-7,9.72-9.31,22.22-11.38,34.16-1,5.81,1.71,11.43,5.47,15.22,2.75,2.77,7-.45,10-2.72,28.3-21.85,53.36-46.81,73.3-76.66,2.18-3.25,6-6.33,3.61-10.71C802.61,695.22,798.11,697.19,794.58,696.75Z" transform="translate(-42.65 -37.5)"/><path class="cls-10" d="M312,861.45c-11.06-3.36-19.75-11.08-29.84-16.26-4.57-2.34-8.79-5.38-13.17-8.11a35.43,35.43,0,0,1,3.94-2.19c9.11-3.71,14.76-10.66,16.46-20s-4.85-14.65-11.74-19.51c-5.57-3.91-10.74-8.39-16.09-12.61-6.86-6.55-13.86-13-20.55-19.68-8.86-8.9-17.48-18.05-26.2-27.08-5.67-10.79-15.63-18.63-20.58-29.91a5.62,5.62,0,0,1,5.62-3.75c6.21,8.07,12.36,16.21,18.66,24.21a355.9,355.9,0,0,0,62.15,61.17c6.53,5,11.55,3.54,14-4.07,5.71-17.86-4.3-32.3-11.31-47-5.2-10.91-16.41-16.49-25.38-24.06C240.78,698,221.35,694.3,199.82,698.6c-11.62-11.64-17-27-24.28-41.15,1.38-3.21,4.35-4.6,7.33-5.18,14.34-2.8,28.76-3.89,43.19-.45.61,0,1.22,0,1.84,0,8.23,20.47,21.77,37.62,36.28,53.57,23,25.3,47.31,49.46,77.81,66.13,4,12.89,1,25.8-.35,38.6-1.1,10.56-6.95,12.74-16.28,7.16-7.71-4.6-15.51-9-23.18-13.7-2.76-1.68-5.87-3.86-8-.39-2,3.15,1.44,4.73,3.83,6.22,9.14,5.71,18.17,11.59,27.39,17.17,3.81,2.3,7.15,4.9,4.56,9.53C324.88,845.18,321.59,855.58,312,861.45Z" transform="translate(-42.65 -37.5)"/><path class="cls-13" d="M312,861.45c9.58-5.87,12.87-16.27,17.93-25.31,2.59-4.63-.75-7.23-4.56-9.53-9.22-5.58-18.25-11.46-27.39-17.17-2.39-1.49-5.79-3.07-3.83-6.22,2.15-3.47,5.26-1.29,8,.39,7.67,4.66,15.47,9.1,23.18,13.7,9.33,5.58,15.18,3.4,16.28-7.16,1.34-12.8,4.34-25.71.35-38.6l11.22,5.6c7.22,4.82,15.88,7.16,22.45,13.09a70.47,70.47,0,0,1-7.49,44.91c-10.26.81-18.06-5.83-27.05-8.9-2.46-.84-5.27-3.7-7.29,0s1.75,4.84,4,5.95c10.29,5,20.51,10.24,31.11,14.52,7.58,3.06,10.16,7.06,6.51,14.73-3.74,7.85-7.27,15.78-13,22.5A198.61,198.61,0,0,1,312,861.45Z" transform="translate(-42.65 -37.5)"/><path class="cls-3" d="M214.82,736c8.72,9,17.34,18.18,26.2,27.08,6.69,6.72,13.69,13.13,20.55,19.68,1.16,14.94-.41,29-13.1,39.29a328.57,328.57,0,0,1-67.41-69c1.26-6.68,6.31-9.53,12-11.27C200.24,739.55,207.56,737.89,214.82,736Z" transform="translate(-42.65 -37.5)"/><path class="cls-14" d="M684.26,814.56c7.07-1.61,12.88-5.73,19-9.38,2-1.21,4.7-3.15,6.51-.25,1.62,2.59-.57,4.84-2.63,6.18-8.26,5.38-16.51,10.81-25.07,15.67-5.62,3.2-6.23,6.29-3,11.91,4.92,8.57,9.81,17.07,16.44,24.46-16.91,10.3-34.71,18.46-54.21,22.53-4-7.37-8.53-14.49-11.74-22.18-2.76-6.61-3.45-12.93,6.39-15.83,9.15-2.7,17.84-7.12,26.5-11.27,5-2.39,10.22-5.27,8.75-12.48C674.59,819.49,681.54,820,684.26,814.56Z" transform="translate(-42.65 -37.5)"/><path class="cls-10" d="M128.7,668.71a7.58,7.58,0,0,0,4.23-4.7c4.84-12.93,15.64-15.49,27.66-15.93l3.72,3.77c4.14,11.55,9.92,22.28,16.29,32.74,2.65,4.36,6.74,8.16,6.17,14-11.71,4.38-22.94,9.45-30,20.65C145.39,703.52,135.72,686.85,128.7,668.71Z" transform="translate(-42.65 -37.5)"/><path class="cls-11" d="M156.81,719.21c7-11.2,18.25-16.27,30-20.65l7.47,7.53c4.95,11.28,14.91,19.12,20.58,29.91-7.26,1.89-14.58,3.55-21.75,5.74-5.7,1.74-10.75,4.59-12,11.27C171.5,742.8,163.89,731.19,156.81,719.21Z" transform="translate(-42.65 -37.5)"/><path class="cls-11" d="M248.47,822.05c12.69-10.32,14.26-24.35,13.1-39.29,5.35,4.22,10.52,8.7,16.09,12.61,6.89,4.86,13.44,10.14,11.74,19.51s-7.35,16.3-16.46,20a35.43,35.43,0,0,0-3.94,2.19Z" transform="translate(-42.65 -37.5)"/><path class="cls-12" d="M843.23,345.11q6.56,15,13.1,29.92c4.32,16.41,10,32.46,13.06,49.23,6.37,35.46,9.21,71,6,107.15A372.74,372.74,0,0,1,847,644.35h-5.65c.71-10.73,6-20.07,9-30.09,13.72-44.93,20.95-90.58,17.48-137.86a480.35,480.35,0,0,0-9.68-65.85c-5.21-21.11-13.23-41.29-20.55-61.7A5.65,5.65,0,0,1,843.23,345.11Z" transform="translate(-42.65 -37.5)"/><path class="cls-14" d="M841.32,644.36H847c0,.63,0,1.27,0,1.9-8.72,17.79-17.81,35.38-28.06,52.35-.8,1.51-2.2,1.84-3.73,1.91-4.18-2.7-3-5.86-1-9.34,6.15-10.86,12.19-21.79,18.21-32.72,1.77-3.22,3.76-6.41,3.36-10.35C837.69,647,838.42,644.06,841.32,644.36Z" transform="translate(-42.65 -37.5)"/><path class="cls-12" d="M164.31,651.85l-3.72-3.77c-.44-9.66-6.39-17.38-9.25-26.21a420.44,420.44,0,0,1-19.12-92.53c-4.8-53.81,2.45-105.67,20.84-156.21,2.39-11.4,8.12-21.43,13.13-31.76a5.66,5.66,0,0,1,5.62,3.75l-1.86,5.6c-5.87,14-12,28-15,43-9.65,25.94-13.43,53-14.95,80.42l0,15c0,.63,0,1.25,0,1.87-3.35,3.41-2.2,7.8-1.68,11.5,2.66,18.93,1.69,38.17,5.4,57,4.82,24.53,10.29,48.84,20.6,71.77-.63,7,6.24,11.72,5.62,18.7Z" transform="translate(-42.65 -37.5)"/><path class="cls-12" d="M355.11,156.25c24.33-9.38,48.67-18.79,74.51-23.21,10.65-1.82,21.09-5.17,32.06-4.94,28.68-3.15,57.37-2.3,86.06,0,36.91,5.08,72.74,14,106.6,30a5.67,5.67,0,0,1-3.75,5.62c-38.24-14.84-77.3-25.42-118.56-28.58-32.75-2.5-64.82-.21-96.93,5.33-27,4.66-52.8,13.16-78.15,23.26A12.33,12.33,0,0,1,355.11,156.25Z" transform="translate(-42.65 -37.5)"/><path class="cls-10" d="M809.6,285.25c1,2.61,4,4.23,3.72,7.48-2.06.08-4.29-.31-5.64,1.9-3.67-1.32-4.73-5.25-7.46-7.5-1.67-5.23-6.09-8.48-9.18-12.68a300.09,300.09,0,0,0-71.88-70c-4.52-3.12-9.76-5.52-12.46-10.78.07-2.09-.34-4.33,1.9-5.69,12.51,5.2,22.37,14.45,32.56,22.77A353.19,353.19,0,0,1,809.6,285.25Z" transform="translate(-42.65 -37.5)"/><path class="cls-14" d="M708.6,188c-2.24,1.36-1.83,3.6-1.9,5.69l-5.61-1.93c-12.67-9.41-27.32-15.17-41.15-22.45-2.09-3.58-6.91-2.62-9.35-5.61a5.67,5.67,0,0,0,3.75-5.62l7.47,1.87,39.29,22.41Z" transform="translate(-42.65 -37.5)"/><path class="cls-10" d="M194.23,290.87c6.59-12.32,17-21.91,24.34-33.65,6.56-3.47,9.39-10.42,14.36-15.41a501.18,501.18,0,0,1,38.91-35.23,20.23,20.23,0,0,0,2.84-3.59c9.87-3.84,16.37-12.91,26.17-16.85a12.2,12.2,0,0,0,1.88,7.46,479.58,479.58,0,0,0-47.22,37.32,280.05,280.05,0,0,0-48.19,56.21l-5.59,5.62C199.76,290,196.82,291.14,194.23,290.87Z" transform="translate(-42.65 -37.5)"/><path class="cls-14" d="M302.73,193.6a12.2,12.2,0,0,1-1.88-7.46l5.6-3.77c13-8.78,27.17-15.44,41.13-22.46l7.53-3.66a12.33,12.33,0,0,0,1.84,7.46c-5.24,3.77-12.12,4.6-16.83,9.34a136.75,136.75,0,0,0-35.55,20.52C304,193.6,303.34,193.61,302.73,193.6Z" transform="translate(-42.65 -37.5)"/><path class="cls-14" d="M807.68,294.63c1.35-2.21,3.58-1.82,5.64-1.9,8.76,8.19,12.76,19.5,19.21,29.22,1.51,2.28,2.17,5.21,5.08,6.37-.54,6.41,5.1,10.74,5.62,16.79a5.65,5.65,0,0,0-5.62,3.75l-3.69,0c-.78-11.55-7.53-20.48-13.12-29.92Z" transform="translate(-42.65 -37.5)"/><path class="cls-14" d="M194.23,290.87c2.59.27,5.53-.87,7.5,1.88-4.73,10.47-13.32,18.77-16.86,29.91l-13.06,22.46a5.66,5.66,0,0,0-5.62-3.75c.21-4.64,4.5-8.12,3.75-13.05,9.1-11.5,16.12-24.26,22.49-37.41Z" transform="translate(-42.65 -37.5)"/><path class="cls-14" d="M368.17,835.15a70.47,70.47,0,0,0,7.49-44.91c9.66.38,17.26,6.68,26.22,9.14,25.95,7.12,51.86,13.41,79,15.81,26,2.3,51.26-.11,76.65-3.69,27.15-3.82,52.78-13.11,78.14-23.13,4.4,15,3.76,31.37,13.09,44.89-21.07,9.21-42,18.83-65.71,19a6.75,6.75,0,0,0-2.71.37c-16,7.48-32.29.57-48.35.43-7.05-.06-14,.84-21,.67-19.4-.48-38.74-1.34-58.08,1.79-8.24,1.34-16.85-2.95-24.44-2.64-10.68.44-20.06-2.34-29.74-4.78-9.24-2.34-18.12-6.1-27.21-9.09C369.42,838.35,368.35,837.24,368.17,835.15Z" transform="translate(-42.65 -37.5)"/><path class="cls-13" d="M648.72,833.26c-9.33-13.52-8.69-29.94-13.09-44.89l18.71-11.22c7.27-1,12.27-6.62,18.7-9.35.09,12.57-1.25,25.31,4,37.29,1.62,3.68,1,9.21,7.19,9.47-2.72,5.43-9.67,4.93-13.1,9.36C663.22,825.92,656.93,831.91,648.72,833.26Z" transform="translate(-42.65 -37.5)"/><path class="cls-13" d="M841.32,644.36c-2.9-.3-3.63,2.62-5.57,3.74-10.79-5.9-23.08-4.89-34.59-7.43-5.26-1.16-9.16,3.28-14.06,3.67a6.8,6.8,0,0,1,.29-1.83C804.16,606.33,816,569,819.47,528.82a342.66,342.66,0,0,0-6.14-99.55,94.68,94.68,0,0,0,38.56.09c4.31-.9,4.49-2.2,2-5.32-6.13-7.54-5.64-8.9,4.32-13.48a480.35,480.35,0,0,1,9.68,65.85c3.47,47.28-3.76,92.93-17.48,137.86C847.3,624.29,842,633.63,841.32,644.36Z" transform="translate(-42.65 -37.5)"/><path class="cls-11" d="M794.58,696.75c3.53.44,8-1.53,10.22,2.55,2.35,4.38-1.43,7.46-3.61,10.71-19.94,29.85-45,54.81-73.3,76.66-2.95,2.27-7.23,5.49-10,2.72-3.76-3.79-6.47-9.41-5.47-15.22,2.07-11.94,4.39-24.44,11.38-34.16,13.1-18.18,29.14-33.68,51.62-40.16C781.62,698.07,787.93,696.15,794.58,696.75Z" transform="translate(-42.65 -37.5)"/><path class="cls-12" d="M813.33,429.27a342.66,342.66,0,0,1,6.14,99.55C816,569,804.16,606.33,787.39,642.51a6.8,6.8,0,0,0-.29,1.83q-2.8,3.75-5.6,7.49H774c1.3-6.54,5.14-12,8-17.78,20.61-41.83,30.2-86.2,31.33-132.65.43-17.44-1.75-34.66-4.12-51.78-1.94-14-4-28.18-10.87-40.94-3.6-19.68-12.28-37.27-22.44-54.24,0-5.19-5.22-8.09-5.65-13.08h7.49q3.75,5.61,7.48,11.23A326.38,326.38,0,0,1,813.33,429.27Z" transform="translate(-42.65 -37.5)"/><path class="cls-14" d="M774,651.84h7.47c-18.08,33.66-42.07,62.43-71,87.37A427.27,427.27,0,0,1,673,767.8c-6.43,2.73-11.43,8.3-18.7,9.35,0-2.49,0-5,0-7.48,7.24-5.35,15.86-8.64,22.45-15,6.5-3.06,11.74-7.88,17.38-12.21a291.27,291.27,0,0,0,78-90.66Z" transform="translate(-42.65 -37.5)"/><path class="cls-11" d="M199.82,698.6c21.53-4.3,41-.57,58.14,13.95,9,7.57,20.18,13.15,25.38,24.06,7,14.74,17,29.18,11.31,47-2.43,7.61-7.45,9.12-14,4.07a355.9,355.9,0,0,1-62.15-61.17c-6.3-8-12.45-16.14-18.66-24.21C199.85,701.09,199.83,699.84,199.82,698.6Z" transform="translate(-42.65 -37.5)"/><path class="cls-12" d="M227.9,651.85c-.62,0-1.23,0-1.84,0-7.3-16-15.77-31.54-20.61-48.6l-3.72-7.49c-.39-4.61-1.23-9.09-3.75-13.09-.27-2.59.87-5.52-1.87-7.48q-2.81-15-5.62-29.92v-3.75c-1.67-19.34-3.54-38.55-2.26-58.16,1.25-18.94,3.41-37.54,7.86-55.93,0-5.94,2.12-11.35,3.71-17,5.29-18.66,14.51-35.78,20.67-54.08,5.48-4.46,5.35-12.63,11.17-16.87a5.7,5.7,0,0,1,5.62,3.75l-1.92,5.59c-6.25,8.12-10,17.61-14.19,26.79a204.14,204.14,0,0,0-15.71,49.9,12.46,12.46,0,0,0-1.74,3.13,315.71,315.71,0,0,0-.8,138C209.16,595.92,221,623,233.52,650Z" transform="translate(-42.65 -37.5)"/><path class="cls-13" d="M205.45,603.22c4.84,17.06,13.31,32.58,20.61,48.6-14.43-3.44-28.85-2.35-43.19.45-3,.58-6,2-7.33,5.18-2.7-1.87-1.7-6.51-5.61-7.48.62-7-6.25-11.71-5.62-18.7,2.07-5,6.95-5.74,11.28-7.18,2.49-.82,6.39,0,6.42-3.76,0-3.12-3.78-2.55-5.85-3.47-2.84-1.27-6.39-1.63-5.84-5.84.48-3.72,4-4.65,6.81-5.5A72.76,72.76,0,0,1,205.45,603.22Z" transform="translate(-42.65 -37.5)"/><path class="cls-14" d="M227.9,651.85l5.62-1.88,3.74,1.87c1.13,2.87,1.83,6,3.48,8.56C256.61,685,273.91,708.57,296,727.91c12,10.5,24.29,21,38.52,28.67,6.35,6.69,16.1,8.27,22.45,14.95a5.68,5.68,0,0,0-3.75,5.62L342,771.55c-30.5-16.67-54.81-40.83-77.81-66.13C249.67,689.47,236.13,672.32,227.9,651.85Z" transform="translate(-42.65 -37.5)"/><path class="cls-14" d="M169.93,650c3.91,1,2.91,5.61,5.61,7.48,7.28,14.19,12.66,29.51,24.28,41.15,0,1.24,0,2.49,0,3.74a5.62,5.62,0,0,0-5.62,3.75l-7.47-7.53c.57-5.81-3.52-9.61-6.17-14-6.37-10.46-12.15-21.19-16.29-32.74Z" transform="translate(-42.65 -37.5)"/><path class="cls-12" d="M353.21,777.15a5.68,5.68,0,0,1,3.75-5.62l7.47,1.89c34.54,20.24,72.46,30.35,111.81,33.19,30.47,2.2,61.25,1.72,91.57-5,27-6,53-14.45,77.17-28.15l9.35-3.75c0,2.49,0,5,0,7.48l-18.71,11.22c-25.36,10-51,19.31-78.14,23.13-25.39,3.58-50.66,6-76.65,3.69-27.1-2.4-53-8.69-79-15.81-9-2.46-16.56-8.76-26.22-9.14C369.09,784.31,360.43,782,353.21,777.15Z" transform="translate(-42.65 -37.5)"/><path class="cls-8" d="M813.33,429.27a326.38,326.38,0,0,0-28.07-76.68c16.66,4.38,32.65.28,48.66-3.75l3.69,0c7.32,20.41,15.34,40.59,20.55,61.7-10,4.58-10.45,5.94-4.32,13.48,2.54,3.12,2.36,4.42-2,5.32A94.68,94.68,0,0,1,813.33,429.27Z" transform="translate(-42.65 -37.5)"/><path class="cls-13" d="M196.09,427.4c-4.45,18.39-6.61,37-7.86,55.93-1.28,19.61.59,38.82,2.26,58.16-1,.48-2.64.81-2.78,1.47-.44,2,1.42,2,2.78,2.28q2.81,15,5.62,29.92c-.89,1.86-4,2.41-3.39,5.07.63,2.91,3.22,2.22,5.26,2.41,2.52,4,3.36,8.48,3.75,13.09a3.26,3.26,0,0,0-.83.43c-6,5.63-12.92,4-17.72-.29-5.05-4.55-1.82-9.4,3.47-12.73,1.92-1.2,1.85-3.31-.72-4.09-8.34-2.51-13.06-10.39-20.8-13.8-1.87-.83-4.43-1.55-4.17-4.35s3.24-2.4,5-3.42c1.35-.77,2.83-1.31,4.17-2.09,4.51-2.64,11.6-5.6,11.46-9.67-.18-5-8-3.77-12.47-5.37-9.88-3.56-12.39-12.39-4.52-19.36,4.44-3.94,1.6-4.5-1-7.29-4.8-5.08-13.32-5.9-15.77-12.88A18.18,18.18,0,0,0,140,491c0-.62,0-1.24,0-1.87,1.19-.29,2.65-.24,3.52-.94,4.39-3.52,14.78-2.23,13.52-8.4-1.21-5.88-10.52-5.63-17-5.62,1.52-27.45,5.3-54.48,14.95-80.42,3.6,4.14-.84,11.64,4.81,14.2,7.05,3.2,7.13,7.5,4.44,13.31-2.51,5.43.33,6.28,5,6.2C178.15,427.29,187.12,427.4,196.09,427.4Z" transform="translate(-42.65 -37.5)"/><path class="cls-7" d="M140,491a18.18,18.18,0,0,1,7.8,9.83c2.45,7,11,7.8,15.77,12.88,2.64,2.79,5.48,3.35,1,7.29-7.87,7-5.36,15.8,4.52,19.36,4.43,1.6,12.29.37,12.47,5.37.14,4.07-7,7-11.46,9.67-1.34.78-2.82,1.32-4.17,2.09-1.76,1-4.73.52-5,3.42s2.3,3.52,4.17,4.35c7.74,3.41,12.46,11.29,20.8,13.8,2.57.78,2.64,2.89.72,4.09-5.29,3.33-8.52,8.18-3.47,12.73,4.8,4.31,11.72,5.92,17.72.29a3.26,3.26,0,0,1,.83-.43l3.72,7.49a72.76,72.76,0,0,0-28.32,2.3c-2.86.85-6.33,1.78-6.81,5.5-.55,4.21,3,4.57,5.84,5.84,2.07.92,5.87.35,5.85,3.47,0,3.8-3.93,2.94-6.42,3.76-4.33,1.44-9.21,2.15-11.28,7.18C154,608.34,148.53,584,143.71,559.5c-3.71-18.84-2.74-38.08-5.4-57C137.79,498.79,136.64,494.4,140,491Z" transform="translate(-42.65 -37.5)"/><path class="cls-8" d="M196.09,427.4c-9,0-17.94-.11-26.9.05-4.64.08-7.48-.77-5-6.2,2.69-5.81,2.61-10.11-4.44-13.31-5.65-2.56-1.21-10.06-4.81-14.2,2.94-15.05,9.11-29,15-43,4.13.23,6.94,3.52,11.13,4.23,13.12,2.25,26.13,4.34,39.39,1.41-6.16,18.3-15.38,35.42-20.67,54.08C198.21,416.05,196.06,421.46,196.09,427.4Z" transform="translate(-42.65 -37.5)"/><path class="cls-2" d="M220.47,356.36c-13.26,2.93-26.27.84-39.39-1.41-4.19-.71-7-4-11.13-4.23l1.86-5.6,13.06-22.46c4.85,3,10.08,4,15.8,3.83,12.85-.31,25.73.51,38.46-1.95-.65,5.91-6.83,9-7.5,14.95C225.82,343.73,226,351.9,220.47,356.36Z" transform="translate(-42.65 -37.5)"/><path class="cls-7" d="M140,474.16c6.5,0,15.81-.26,17,5.62,1.26,6.17-9.13,4.88-13.52,8.4-.87.7-2.33.65-3.52.94Q140,481.64,140,474.16Z" transform="translate(-42.65 -37.5)"/><path class="cls-2" d="M340.12,173.05c4.71-4.74,11.59-5.57,16.83-9.34,25.35-10.1,51.17-18.6,78.15-23.26,32.11-5.54,64.18-7.83,96.93-5.33,41.26,3.16,80.32,13.74,118.56,28.58,2.44,3,7.26,2,9.35,5.61-2.94,1.31-3.07,4-3.89,6.71-4.6,15.28,1,30.43.16,45.63-42.16-23.47-87.57-36.13-135.52-39-33.29-2-66.19,2.1-98.42,10.82-25.54,6.92-50.2,16-72.79,30.12l-15,7.48c-.47-6.35.24-12.29,4.73-17.41,2-2.32,2.28-5.56,2.88-8.66C344.23,194.09,341.48,183.63,340.12,173.05Z" transform="translate(-42.65 -37.5)"/><path class="cls-3" d="M656.21,221.65c.8-15.2-4.76-30.35-.16-45.63.82-2.72,1-5.4,3.89-6.71,13.83,7.28,28.48,13,41.15,22.45-5.32,8.77-4.6,16.81,2.55,24.39,2.13,2.25,2.55,5.51,3.31,8.58,5.37,21.59,16.57,39.47,35.11,52.1,15.68,10.69,34.24,11.49,52.22,14,2.73.38,4.76-1.16,5.94-3.67,2.73,2.25,3.79,6.18,7.46,7.5l13.12,24.29c-4.33,5.47-10.7,5-16.64,5.58-12,1.12-23.83-1.21-35.75-1.82-19.58-25.49-40.24-50-65.53-70.11-14-11.1-28-22.26-44.79-29.06Z" transform="translate(-42.65 -37.5)"/><path class="cls-4" d="M800.22,287.13c-1.18,2.51-3.21,4.05-5.94,3.67-18-2.48-36.54-3.28-52.22-14-18.54-12.63-29.74-30.51-35.11-52.1-.76-3.07-1.18-6.33-3.31-8.58-7.15-7.58-7.87-15.62-2.55-24.39l5.61,1.93c2.7,5.26,7.94,7.66,12.46,10.78a300.09,300.09,0,0,1,71.88,70C794.13,278.65,798.55,281.9,800.22,287.13Z" transform="translate(-42.65 -37.5)"/><path class="cls-3" d="M340.12,173.05c1.36,10.58,4.11,21,2,31.91-.6,3.1-.85,6.34-2.88,8.66-4.49,5.12-5.2,11.06-4.73,17.41a358,358,0,0,0-95.39,93.51c-12.73,2.46-25.61,1.64-38.46,1.95-5.72.15-10.95-.8-15.8-3.83,3.54-11.14,12.13-19.44,16.86-29.91,1.86-1.88,3.73-3.75,5.59-5.62,32.1,6,65.38-5.82,84.11-38.66,6.41-11.23,7.53-24.31,13.94-35.24,4.22-7.22,4-13.29-.8-19.66A136.75,136.75,0,0,1,340.12,173.05Z" transform="translate(-42.65 -37.5)"/><path class="cls-4" d="M304.57,193.57c4.83,6.37,5,12.44.8,19.66-6.41,10.93-7.53,24-13.94,35.24-18.73,32.84-52,44.62-84.11,38.66a280.05,280.05,0,0,1,48.19-56.21,479.58,479.58,0,0,1,47.22-37.32C303.34,193.61,304,193.6,304.57,193.57Z" transform="translate(-42.65 -37.5)"/><path class="cls-2" d="M768.41,322.68c11.92.61,23.76,2.94,35.75,1.82,5.94-.55,12.31-.11,16.64-5.58,5.59,9.44,12.34,18.37,13.12,29.92-16,4-32,8.13-48.66,3.75q-3.74-5.61-7.48-11.23C777.1,333.91,769.73,329.81,768.41,322.68Z" transform="translate(-42.65 -37.5)"/><path class="cls-13" d="M654.33,769.67,645,773.42c-3.73-2.94-6.91-5.65-4.2-11.46,1.46-3.14.79-7.25-.41-10.9-1.92-5.86-.83-11.27,1.66-16.95,4.78-10.94,10.84-21.48,12.3-33.65C667.47,687,683,676.17,694.9,661.18c15.91-20,30.19-40.91,39.88-64.68,14.56-35.68,21.63-72.52,18.94-111.31a296.21,296.21,0,0,0-8-52.11c-6.43-25.51-18.34-48.62-31.55-71.14,11.24,4.16,22.79,7.69,33.57,12.82,3.84,1.84,9.8,4.7,9.85,9.7,0,1.84-7,3.73-10.72,5.66a7.24,7.24,0,0,0-1.49,1.16c4.22,10,11,17,21.87,17.08,10.37.13,20.73,4.22,31.12.33,6.92,12.76,8.93,27,10.87,40.94,2.37,17.12,4.55,34.34,4.12,51.78-1.13,46.45-10.72,90.82-31.33,132.65-2.87,5.82-6.71,11.24-8,17.78h-1.87c-8.19-.71-15.79,1.77-23.67,3.52-10,2.22-14.84,10.45-22.33,15.43A215,215,0,0,0,696,695.27c-2.51,2.41-5.47,5.09-5.46,8.4,0,7.73-4.52,13.12-8,19.27a123.57,123.57,0,0,0-8.71,19.48c-1.49,4.26-2.47,9.27,2.94,12.29C670.19,761,661.57,764.32,654.33,769.67Z" transform="translate(-42.65 -37.5)"/><path class="cls-2" d="M770.29,341.37c.43,5,5.7,7.89,5.65,13.08-5.92,2.93-12.08,2.25-18.23,1.11-18-3.33-33.85-11.64-49.54-20.63-8.22-4.71-15.59-11.55-25.77-12.27l-1.88-1.87c-.16-6.83-4.88-11-9-15.53-11.26-12.31-22.27-24.8-28.43-40.67-3.34-8.6-6.73-17.09-11.29-25.25-3.38-6.06-6.75-13.9,2-19.55l22.41,9.38,3.74,3.74c-4.3,6.85-.56,11.73,4.33,15.92,2.33,2,5.32,3.27,6.72,6.21a129.11,129.11,0,0,0,23.66,33.79c14.43,15.15,30.13,27.5,48.88,36.12,4.69,2.16,9.94,5.92,15.55,1.46C764.7,330,765.81,336.94,770.29,341.37Z" transform="translate(-42.65 -37.5)"/><path class="cls-8" d="M682.4,322.66c10.18.72,17.55,7.56,25.77,12.27,15.69,9,31.56,17.3,49.54,20.63,6.15,1.14,12.31,1.82,18.23-1.11,10.16,17,18.84,34.56,22.44,54.24-10.39,3.89-20.75-.2-31.12-.33-10.91-.13-17.65-7.06-21.87-17.08a7.24,7.24,0,0,1,1.49-1.16c3.75-1.93,10.73-3.82,10.72-5.66-.05-5-6-7.86-9.85-9.7-10.78-5.13-22.33-8.66-33.57-12.82A448.45,448.45,0,0,0,682.4,322.66Z" transform="translate(-42.65 -37.5)"/><path class="cls-14" d="M770.29,341.37c-4.48-4.43-5.59-11.39-11.22-15-4.66-9.94-12.27-17.65-19.14-26a290.07,290.07,0,0,0-80-67.52l-3.74-3.74c2.22-1.36,1.81-3.59,1.9-5.66,16.81,6.8,30.83,18,44.79,29.06,25.29,20.11,46,44.62,65.53,70.11,1.32,7.13,8.69,11.23,9.37,18.68Z" transform="translate(-42.65 -37.5)"/><path class="cls-10" d="M676.78,754.71c-5.41-3-4.43-8-2.94-12.29a123.57,123.57,0,0,1,8.71-19.48c3.45-6.15,8-11.54,8-19.27,0-3.31,3-6,5.46-8.4a215,215,0,0,1,30.18-24.48c7.49-5,12.37-13.21,22.33-15.43,7.88-1.75,15.48-4.23,23.67-3.52a291.27,291.27,0,0,1-78,90.66C688.52,746.83,683.28,751.65,676.78,754.71Z" transform="translate(-42.65 -37.5)"/><path class="cls-8" d="M633.78,219.79c-8.74,5.65-5.37,13.49-2,19.55,4.56,8.16,8,16.65,11.29,25.25,6.16,15.87,17.17,28.36,28.43,40.67,4.13,4.51,8.85,8.7,9,15.53-14.54-13.05-29.35-25.62-46.12-36-39.06-24.11-81.76-35.25-127.15-36.84-24.28-.86-48.25,2.87-71.55,9.58-51.24,14.76-94,42.62-127.23,84.57-7.1,8.94-13.81,18.19-20.7,27.29-7.53,2.3-11.71,11.13-20.86,10.56-1.7-.1-4.81.4-4.88,3.32-.09,3.16,2.91,2.39,4.75,3.21,2.86,1.27,9,2.93,6.45,5.65-4.07,4.3-3.24,10.76-8.22,14.11-4.56,3.06-5.95,7.65-5.33,13,.87,7.61-3,9.92-10,8.79-6.47-1.05-12.82-.35-19.35.4-8.29.95-17.32,3.7-24.9-3a204.14,204.14,0,0,1,15.71-49.9c4.2-9.18,7.94-18.67,14.19-26.79a12.49,12.49,0,0,0,9.89,1.48c32.66-9.24,61.61-24.36,83-51.81,3.77-4.84,8.22-10.62,13.56-12.44,9-3.07,12.57-9.62,15.74-17.09,4-9.42,8.33-18.79,11.23-28.57,1.75-5.88,5.33-12.24,1.29-18.77,16.16-9.42,33.88-14.86,51.68-20.06,28.39-8.29,57.66-11.6,87-11.22,20.52.26,41.35,2.05,61.48,7.14C592,203,614,208.36,633.78,219.79Z" transform="translate(-42.65 -37.5)"/><path class="cls-13" d="M205.44,425.52c7.58,6.68,16.61,3.93,24.9,3,6.53-.75,12.88-1.45,19.35-.4,7,1.13,10.86-1.18,10-8.79-.62-5.38.77-10,5.33-13,5-3.35,4.15-9.81,8.22-14.11,2.57-2.72-3.59-4.38-6.45-5.65-1.84-.82-4.84,0-4.75-3.21.07-2.92,3.18-3.42,4.88-3.32,9.15.57,13.33-8.26,20.86-10.56-1.48,7.17-6.21,12.78-9.22,19.2C260.5,427.09,252,467.28,253.81,510c1.48,34.41,9.3,66.85,24.13,97.65,18.35,38.14,45.33,69.24,79,94.66-.37,4.71.14,9.27,2.91,13.26,10.87,15.67,10,33.63,10.17,51.41,0,4-2.92,5-5.61,6.41L357,771.53c-6.35-6.68-16.1-8.26-22.45-14.95,4.91-8.34,1.87-15.82-2.24-23.38-3.83-7-9.41-14.05-10.29-21.53-1.31-11.21-7.88-17.53-15.19-24.13-10.32-9.32-22-16.9-32.91-25.49-10.14-8-22.54-13.59-36.62-10.21L233.52,650C221,623,209.16,595.92,202.9,566.64a315.71,315.71,0,0,1,.8-138A12.46,12.46,0,0,1,205.44,425.52Z" transform="translate(-42.65 -37.5)"/><path class="cls-2" d="M370,221.63c4,6.53.46,12.89-1.29,18.77-2.9,9.78-7.22,19.15-11.23,28.57-3.17,7.47-6.71,14-15.74,17.09-5.34,1.82-9.79,7.6-13.56,12.44-21.38,27.45-50.33,42.57-83,51.81a12.49,12.49,0,0,1-9.89-1.48l1.92-5.59a29.22,29.22,0,0,0,2.28-2.84c17.26-27.69,37-53.09,62.25-74.31,15.19-12.78,31.48-23.8,47.69-35C356.73,228.77,362.35,223,370,221.63Z" transform="translate(-42.65 -37.5)"/><path class="cls-14" d="M349.48,231c-16.21,11.25-32.5,22.27-47.69,35-25.22,21.22-45,46.62-62.25,74.31a29.22,29.22,0,0,1-2.28,2.84,5.7,5.7,0,0,0-5.62-3.75c.66-5.9,6.84-9,7.49-14.95A358,358,0,0,1,334.52,231l15-7.48Z" transform="translate(-42.65 -37.5)"/><path class="cls-7" d="M198,582.64c-2-.19-4.63.5-5.26-2.41-.57-2.66,2.5-3.21,3.39-5.07C198.85,577.12,197.71,580.05,198,582.64Z" transform="translate(-42.65 -37.5)"/><path class="cls-7" d="M190.49,545.24c-1.36-.28-3.22-.26-2.78-2.28.14-.66,1.81-1,2.78-1.47Z" transform="translate(-42.65 -37.5)"/><path class="cls-10" d="M237.26,651.84c14.08-3.38,26.48,2.2,36.62,10.21,10.89,8.59,22.59,16.17,32.91,25.49,7.31,6.6,13.88,12.92,15.19,24.13.88,7.48,6.46,14.5,10.29,21.53,4.11,7.56,7.15,15,2.24,23.38C320.28,748.89,308,738.41,296,727.91c-22.08-19.34-39.38-42.93-55.25-67.51C239.09,657.86,238.39,654.71,237.26,651.84Z" transform="translate(-42.65 -37.5)"/><path class="cls-14" d="M364.43,773.42c2.69-1.41,5.66-2.37,5.61-6.41-.21-17.78.7-35.74-10.17-51.41-2.77-4-3.28-8.55-2.91-13.26,2.91,1.77,6,3.35,8.72,5.33,19.88,14.24,42,24.25,65.13,31.18a248.16,248.16,0,0,0,104.77,8.51c30.75-4.07,60-12.44,86.87-28.13,10.65-6.21,21.25-12.51,31.88-18.77-1.46,12.17-7.52,22.71-12.3,33.65-2.49,5.68-3.58,11.09-1.66,16.95,1.2,3.65,1.87,7.76.41,10.9-2.71,5.81.47,8.52,4.2,11.46-24.15,13.7-50.14,22.13-77.17,28.15-30.32,6.76-61.1,7.24-91.57,5C436.89,803.77,399,793.66,364.43,773.42Z" transform="translate(-42.65 -37.5)"/><path class="cls-12" d="M349.48,231v-7.49c22.59-14.07,47.25-23.2,72.79-30.12,32.23-8.72,65.13-12.83,98.42-10.82,47.95,2.91,93.36,15.57,135.52,39l1.88,1.86c-.09,2.07.32,4.3-1.9,5.66l-22.41-9.38C614,208.36,592,203,570.17,197.49c-20.13-5.09-41-6.88-61.48-7.14-29.31-.38-58.58,2.93-87,11.22-17.8,5.2-35.52,10.64-51.68,20.06C362.35,223,356.73,228.77,349.48,231Z" transform="translate(-42.65 -37.5)"/><path class="cls-12" d="M654.33,700.46c-10.63,6.26-21.23,12.56-31.88,18.77-26.91,15.69-56.12,24.06-86.87,28.13a248.16,248.16,0,0,1-104.77-8.51c-23.14-6.93-45.25-16.94-65.13-31.18-2.76-2-5.81-3.56-8.72-5.33-33.69-25.42-60.67-56.52-79-94.66-14.83-30.8-22.65-63.24-24.13-97.65-1.83-42.75,6.69-82.94,24.74-121.4,3-6.42,7.74-12,9.22-19.2,6.89-9.1,13.6-18.35,20.7-27.29,33.24-41.95,76-69.81,127.23-84.57C459,250.86,483,247.13,507.25,248c45.39,1.59,88.09,12.73,127.15,36.84,16.77,10.34,31.58,22.91,46.12,36l1.88,1.87a448.45,448.45,0,0,1,31.78,39.28c13.21,22.52,25.12,45.63,31.55,71.14a296.21,296.21,0,0,1,8,52.11c2.69,38.79-4.38,75.63-18.94,111.31-9.69,23.77-24,44.63-39.88,64.68C683,676.17,667.47,687,654.33,700.46Zm61.73-318c-1.89-3.1-2.63-6.9-5.61-9.35a5.68,5.68,0,0,0-3.74-5.61,7.38,7.38,0,0,0-.6-2.7c-18.25-26.22-39.44-49.71-66.35-67.22-66.86-43.53-138.83-52.51-214.45-28.41C382.6,282.83,347.13,308.47,318,342.41c-6.53,7.6-13.75,15.2-17.16,25.14-9.21,10.71-14.41,23.61-20.06,36.3a219.52,219.52,0,0,0-19.08,82.63c-.49,14.54-.52,29.09,1.62,43.63,3,20,7.62,39.4,15.1,58.14,57.66,145.38,234.64,198.56,362.83,110.34,19.42-12.44,35.88-28.28,50.31-46,8.08-9.93,16.89-19.75,20.76-32.51,3.38-1.37,4.06-4.75,5.59-7.49a225.88,225.88,0,0,0,18.37-43.68c9-29.29,11.7-59.57,9.47-90-1.58-21.5-5.14-42.89-14.71-62.69-.3-7.11-4.78-12.55-7.49-18.7,0-1.54-.36-2.94-1.87-3.74a10.39,10.39,0,0,0-3.74-7.49C717.89,384.72,717.57,383.32,716.06,382.51Z" transform="translate(-42.65 -37.5)"/><path class="cls-3" d="M659.93,232.91a290.07,290.07,0,0,1,80,67.52c6.87,8.33,14.48,16,19.14,26-5.61,4.46-10.86.7-15.55-1.46-18.75-8.62-34.45-21-48.88-36.12A129.11,129.11,0,0,1,671,255c-1.4-2.94-4.39-4.22-6.72-6.21C659.37,244.64,655.63,239.76,659.93,232.91Z" transform="translate(-42.65 -37.5)"/><path class="cls-14" d="M641.24,698.59c-128.19,88.22-305.17,35-362.83-110.34,3.81-.43,8.51,1.55,10.7-3.39,1.26-2.84-.13-5.25-2-7.64-5.79-7.25-4.78-9.6,4.56-11.38,2.12-.41,4.22-.87,6.33-1.35,3.79-.87,7.41-2.28,8.12-6.59.66-4.06-3.25-4.7-5.69-6.42-6.07-4.28-6.28-11.14-7.54-17.53,8.53-1.33,8.21-10.77,13.67-14.91,3.43,4.15,2.49,9.52,3.27,14.17C319,588,347.57,630.63,392.35,661.83c46.22,32.2,98.29,42.87,153.35,30.58,66.88-14.94,114.17-54.78,141.19-118.2,1.54-3.61,1.25-9,6.63-10.31,6.44,2.58,12.28,6.55,19.9,6.06,3.85-.25,4.78,2.78,2.47,6.51-2.84,4.58-2.92,9.45,1.09,13.55,3.09,3.15,2.18,4.66-1.23,7-8.3,5.58-7.39,11.14,2.15,15.59-1.53,2.74-2.21,6.12-5.59,7.49-5.44-.45-10,1.33-14.8,4.1-13,7.44-23.48,18-35.43,26.68-2.85,2.07-6.79,4.74-5.64,8.93,2.38,8.7-3.06,13.57-7.68,19.4C644.37,684.69,638.38,690.07,641.24,698.59Z" transform="translate(-42.65 -37.5)"/><path class="cls-13" d="M717.93,386.25a10.39,10.39,0,0,1,3.74,7.49c-2.85,3-.52,3.37,1.87,3.74,2.71,6.15,7.19,11.59,7.49,18.7-15.39-.05-16.19-.66-19.13-15.41-2.56-12.87-9.29-22.33-21.29-28.29-7.46-3.71-14-8.88-20.58-14.18-8.22-6.66-14.34-17.26-23.49-20.67-13.26-4.93-17-16-23.68-25.52-1.94-2.79-3.59-5.78-5.33-8.71-1-1.66-2.55-3.94-4.16-2.91-7.08,4.56-13.74,1.83-20.69-.1-3-.83-5,2-7,3.94s-3.73,3.85-7.12,1.64c-6.5-4.25-10.34-1.37-12.16,5.45a25.35,25.35,0,0,1-2.74-.49c-27.87-8.28-56.07-11.25-85.13-7.32-11.34,1.53-22.12,5.77-33.63,6-7.21-10.89-21.81-2-29.91-11-.6-.67-3.91,1.11-6,1.71-1.75.5-4.17,1.93-5.18,1.26-11.51-7.57-13.84,2.58-18.58,9-7,9.43-9.86,22.69-23.75,25.8a4.47,4.47,0,0,0-2.17,1.71c-17.11,22.21-46.88,29.75-62.43,53.77-1,1.5-2.45,2.12-3.93,1.12-1.74-1.18-.7-2.83.05-4.1,2.48-4.19,3.31-9.34,8-12.21s4.56-6.22-.26-9.14c3.41-9.94,10.63-17.54,17.16-25.14,29.14-33.94,64.61-59.58,107.32-73.19,75.62-24.1,147.59-15.12,214.45,28.41,26.91,17.51,48.1,41,66.35,67.22a7.38,7.38,0,0,1,.6,2.7c-3.36,4.94.95,4.77,3.74,5.61,3,2.45,3.72,6.25,5.61,9.35C713.21,385.5,715.54,385.89,717.93,386.25Z" transform="translate(-42.65 -37.5)"/><path class="cls-7" d="M566.42,311.42c1.82-6.82,5.66-9.7,12.16-5.45,3.39,2.21,5.08.34,7.12-1.64s4-4.77,7-3.94c7,1.93,13.61,4.66,20.69.1,1.61-1,3.18,1.25,4.16,2.91,1.74,2.93,3.39,5.92,5.33,8.71,6.65,9.54,10.42,20.59,23.68,25.52,9.15,3.41,15.27,14,23.49,20.67,6.54,5.3,13.12,10.47,20.58,14.18,12,6,18.73,15.42,21.29,28.29,2.94,14.75,3.74,15.36,19.13,15.41,9.57,19.8,13.13,41.19,14.71,62.69,2.23,30.44-.43,60.72-9.47,90a225.88,225.88,0,0,1-18.37,43.68c-9.54-4.45-10.45-10-2.15-15.59,3.41-2.29,4.32-3.8,1.23-7-4-4.1-3.93-9-1.09-13.55,2.31-3.73,1.38-6.76-2.47-6.51-7.62.49-13.46-3.48-19.9-6.06.33-3.69.05-7.57,1.08-11.06,8.2-27.93,8.65-56.36,4.47-84.79C693.32,429,676.6,395,649.84,365.8,626.65,340.52,598.5,323,566.42,311.42Z" transform="translate(-42.65 -37.5)"/><path class="cls-7" d="M300.83,367.55c4.82,2.92,5.09,6.21.26,9.14s-5.55,8-8,12.21c-.75,1.27-1.79,2.92-.05,4.1,1.48,1,3,.38,3.93-1.12,15.55-24,45.32-31.56,62.43-53.77a4.47,4.47,0,0,1,2.17-1.71c13.89-3.11,16.8-16.37,23.75-25.8,4.74-6.42,7.07-16.57,18.58-9,1,.67,3.43-.76,5.18-1.26,2.05-.6,5.36-2.38,6-1.71,8.1,9,22.7.1,29.91,11-12.31,7.12-26.14,10.8-38.53,18-31.26,18.26-56,42.73-73.91,74.06-20.77,36.37-27.79,75.9-26,117.33-5.46,4.14-5.14,13.58-13.67,14.91,1.26,6.39,1.47,13.25,7.54,17.53,2.44,1.72,6.35,2.36,5.69,6.42-.71,4.31-4.33,5.72-8.12,6.59-2.11.48-4.21.94-6.33,1.35-9.34,1.78-10.35,4.13-4.56,11.38,1.9,2.39,3.29,4.8,2,7.64-2.19,4.94-6.89,3-10.7,3.39-7.48-18.74-12.14-38.17-15.1-58.14-2.14-14.54-2.11-29.09-1.62-43.63a219.52,219.52,0,0,1,19.08-82.63C286.42,391.16,291.62,378.26,300.83,367.55Z" transform="translate(-42.65 -37.5)"/><path class="cls-7" d="M641.24,698.59c-2.86-8.52,3.13-13.9,7.52-19.43,4.62-5.83,10.06-10.7,7.68-19.4-1.15-4.19,2.79-6.86,5.64-8.93,11.95-8.71,22.47-19.24,35.43-26.68,4.82-2.77,9.36-4.55,14.8-4.1-3.87,12.76-12.68,22.58-20.76,32.51C677.12,670.31,660.66,686.15,641.24,698.59Z" transform="translate(-42.65 -37.5)"/><path class="cls-7" d="M710.45,373.16c-2.79-.84-7.1-.67-3.74-5.61A5.68,5.68,0,0,1,710.45,373.16Z" transform="translate(-42.65 -37.5)"/><path class="cls-7" d="M717.93,386.25c-2.39-.36-4.72-.75-1.87-3.74C717.57,383.32,717.89,384.72,717.93,386.25Z" transform="translate(-42.65 -37.5)"/><path class="cls-7" d="M723.54,397.48c-2.39-.37-4.72-.77-1.87-3.74C723.18,394.54,723.5,395.94,723.54,397.48Z" transform="translate(-42.65 -37.5)"/><path class="cls-15" d="M306.53,519c-1.84-41.43,5.18-81,26-117.33,17.9-31.33,42.65-55.8,73.91-74.06,12.39-7.23,26.22-10.91,38.53-18,11.51-.24,22.29-4.48,33.63-6,29.06-3.93,57.26-1,85.13,7.32a25.35,25.35,0,0,0,2.74.49c32.08,11.58,60.23,29.1,83.42,54.38C676.6,395,693.32,429,699.07,468.05c4.18,28.43,3.73,56.86-4.47,84.79-1,3.49-.75,7.37-1.08,11.06-5.38,1.35-5.09,6.7-6.63,10.31-27,63.42-74.31,103.26-141.19,118.2C490.64,704.7,438.57,694,392.35,661.83,347.57,630.63,319,588,309.8,533.21,309,528.56,310,523.19,306.53,519Zm375.85-19.6c1-98.62-79.88-177.9-176.54-178.31-98.31-.41-179.94,75.79-180,178,0,101.82,80.24,177.76,177.82,178.38C603.92,678.19,683.37,595.89,682.38,499.44Z" transform="translate(-42.65 -37.5)"/><path class="cls-16" d="M682.38,499.44c1,96.45-78.46,178.75-178.68,178.11-97.58-.62-177.84-76.56-177.82-178.38,0-102.25,81.65-178.45,180-178C602.5,321.54,683.33,400.82,682.38,499.44Zm-152-16-1.63-1.32c-2-1.94-3.9-4-6.05-5.78-9.13-7.45-25-8.32-34-1.88-12,8.59-17.42,22.73-13.06,35.39,4.24,12.29,12.54,18.91,25,20.34,15.17,1.73,25.53-5.33,32-18.75,3.54-7.9,6.92-15.8.05-23.72l-.39-.6c.26-1.4.26-2.66-1.49-3.1Z" transform="translate(-42.65 -37.5)"/><path class="cls-5" d="M532.64,511.45c-6.46,13.42-16.82,20.48-32,18.75-12.48-1.43-20.78-8.05-25-20.34-4.36-12.66,1-26.8,13.06-35.39,9-6.44,24.84-5.57,34,1.88,2.15,1.75,4,3.84,6.06,5.77l1.62,1.33.47.58c-.27,1.4,0,2.56,1.49,3.1l.39.6C534,495.63,533.51,503.54,532.64,511.45Z" transform="translate(-42.65 -37.5)"/><path class="cls-9" d="M532.64,511.45c.87-7.91,1.31-15.82.05-23.72C539.56,495.65,536.18,503.55,532.64,511.45Z" transform="translate(-42.65 -37.5)"/><path class="cls-9" d="M532.3,487.13c-1.54-.54-1.76-1.7-1.49-3.1C532.56,484.47,532.56,485.73,532.3,487.13Z" transform="translate(-42.65 -37.5)"/><path class="cls-9" d="M530.34,483.45l-1.62-1.33Z" transform="translate(-42.65 -37.5)"/></svg>